<svg data-v-fde0c5aa="" xmlns="http://www.w3.org/2000/svg" viewBox="0 0 300 300" class="iconLeft"><!----><defs data-v-fde0c5aa=""><!----></defs><rect data-v-fde0c5aa="" fill="#50A6D8" x="0" y="0" width="300px" height="300px" class="logo-background-square"></rect><defs data-v-fde0c5aa=""><!----></defs><g data-v-fde0c5aa="" id="e3d58885-57f9-4825-8123-c61526bb3dbb" fill="#ffffff" transform="matrix(1.4703376438570437,0,0,1.4703376438570437,69.98827791229056,131.6575380331057)"><path d="M6.86 16.73L7.95 17.42L7.60 18.19L5.18 17.39L5.18 17.00L4.38 17.39L4.38 17.39Q2.90 17.39 2.18 17.03L2.18 17.03L2.18 17.03Q1.46 16.67 1.18 15.72L1.18 15.72L1.18 15.72Q0.91 14.77 0.91 12.81L0.91 12.81L0.91 12.81Q0.91 10.85 1.18 9.90L1.18 9.90L1.18 9.90Q1.46 8.95 2.18 8.58L2.18 8.58L2.18 8.58Q2.90 8.22 4.38 8.22L4.38 8.22L4.38 8.22Q5.85 8.22 6.58 8.58L6.58 8.58L6.58 8.58Q7.31 8.95 7.58 9.90L7.58 9.90L7.58 9.90Q7.85 10.85 7.85 12.81L7.85 12.81L7.85 12.81Q7.85 14.55 7.63 15.44L7.63 15.44L7.63 15.44Q7.41 16.32 6.86 16.73L6.86 16.73ZM2.42 16.20L5.18 16.20L5.18 16.20Q5.84 16.20 6.09 15.97L6.09 15.97L6.09 15.97Q6.34 15.75 6.34 15.18L6.34 15.18L6.34 9.41L3.57 9.41L3.57 9.41Q2.93 9.41 2.67 9.63L2.67 9.63L2.67 9.63Q2.42 9.86 2.42 10.43L2.42 10.43L2.42 16.20ZM15.57 10.18L15.57 17.18L14.92 17.18L14.55 16.48L14.55 16.48Q13.99 16.91 13.32 17.12L13.32 17.12L13.32 17.12Q12.66 17.32 11.80 17.32L11.80 17.32L11.80 17.32Q10.85 17.32 10.40 16.96L10.40 16.96L10.40 16.96Q9.95 16.60 9.95 15.85L9.95 15.85L9.95 10.18L11.35 10.18L11.35 16.24L12.98 16.24L12.98 16.24Q13.66 16.24 13.92 16.07L13.92 16.07L13.92 16.07Q14.17 15.90 14.17 15.43L14.17 15.43L14.17 10.18L15.57 10.18ZM20.69 10.04L20.69 10.04Q21.66 10.04 22.22 10.23L22.22 10.23L22.22 10.23Q22.78 10.42 23.02 10.84L23.02 10.84L23.02 10.84Q23.27 11.27 23.27 12.00L23.27 12.00L23.27 17.18L22.62 17.18L22.25 16.48L22.25 16.48Q21.74 16.91 21.13 17.12L21.13 17.12L21.13 17.12Q20.52 17.32 19.74 17.32L19.74 17.32L19.74 17.32Q18.58 17.32 18.09 16.84L18.09 16.84L18.09 16.84Q17.60 16.35 17.60 15.22L17.60 15.22L17.60 15.22Q17.60 14.20 17.88 13.75L17.88 13.75L17.88 13.75Q18.16 13.30 18.98 13.15L18.98 13.15L18.98 13.15Q19.80 12.99 21.66 12.99L21.66 12.99L21.87 12.99L21.87 11.30L21.87 11.30Q21.35 11.14 20.45 11.14L20.45 11.14L20.45 11.14Q19.33 11.14 18.09 11.48L18.09 11.48L17.91 10.46L17.91 10.46Q18.42 10.28 19.19 10.16L19.19 10.16L19.19 10.16Q19.96 10.04 20.69 10.04L20.69 10.04ZM20.75 16.24L20.75 16.24Q21.41 16.24 21.64 16.07L21.64 16.07L21.64 16.07Q21.87 15.90 21.87 15.43L21.87 15.43L21.87 13.90L20.01 13.90L20.01 13.90Q19.35 13.90 19.11 14.07L19.11 14.07L19.11 14.07Q18.87 14.24 18.87 14.71L18.87 14.71L18.87 16.24L20.75 16.24ZM27.05 16.14L27.05 16.14Q27.33 16.18 27.69 16.21L27.69 16.21L27.61 17.16L27.61 17.16Q27.09 17.32 26.68 17.32L26.68 17.32L26.68 17.32Q26.15 17.32 25.90 17.06L25.90 17.06L25.90 17.06Q25.65 16.80 25.65 16.27L25.65 16.27L25.65 8.08L27.05 7.87L27.05 16.14ZM29.36 17.18L29.36 17.18ZM29.51 10.28L30.91 10.07L30.91 17.18L29.51 17.18L29.51 10.28ZM30.23 8.96L30.23 8.96Q29.71 8.96 29.53 8.79L29.53 8.79L29.53 8.79Q29.36 8.61 29.36 8.12L29.36 8.12L29.36 8.12Q29.36 7.62 29.54 7.43L29.54 7.43L29.54 7.43Q29.72 7.25 30.23 7.25L30.23 7.25L30.23 7.25Q30.72 7.25 30.89 7.43L30.89 7.43L30.89 7.43Q31.07 7.62 31.07 8.12L31.07 8.12L31.07 8.12Q31.07 8.61 30.90 8.79L30.90 8.79L30.90 8.79Q30.73 8.96 30.23 8.96L30.23 8.96ZM37.48 7.87L38.88 7.70L38.88 17.18L38.23 17.18L37.93 16.62L37.93 16.62Q37.65 17.05 37.12 17.22L37.12 17.22L37.12 17.22Q36.60 17.39 35.67 17.39L35.67 17.39L35.67 17.39Q34.55 17.39 34.00 17.09L34.00 17.09L34.00 17.09Q33.45 16.80 33.23 16.03L33.23 16.03L33.23 16.03Q33.01 15.26 33.01 13.68L33.01 13.68L33.01 13.68Q33.01 12.19 33.22 11.42L33.22 11.42L33.22 11.42Q33.43 10.65 33.95 10.35L33.95 10.35L33.95 10.35Q34.47 10.04 35.48 10.04L35.48 10.04L35.48 10.04Q36.19 10.04 36.67 10.12L36.67 10.12L36.67 10.12Q37.16 10.19 37.48 10.37L37.48 10.37L37.48 7.87ZM37.48 15.89L37.48 11.19L35.13 11.19L35.13 11.19Q34.75 11.19 34.61 11.26L34.61 11.26L34.61 11.26Q34.48 11.33 34.48 11.54L34.48 11.54L34.48 16.24L36.83 16.24L36.83 16.24Q37.21 16.24 37.34 16.17L37.34 16.17L37.34 16.17Q37.48 16.10 37.48 15.89L37.48 15.89ZM44.00 10.04L44.00 10.04Q44.97 10.04 45.53 10.23L45.53 10.23L45.53 10.23Q46.09 10.42 46.33 10.84L46.33 10.84L46.33 10.84Q46.58 11.27 46.58 12.00L46.58 12.00L46.58 17.18L45.93 17.18L45.56 16.48L45.56 16.48Q45.05 16.91 44.44 17.12L44.44 17.12L44.44 17.12Q43.83 17.32 43.05 17.32L43.05 17.32L43.05 17.32Q41.89 17.32 41.40 16.84L41.40 16.84L41.40 16.84Q40.91 16.35 40.91 15.22L40.91 15.22L40.91 15.22Q40.91 14.20 41.19 13.75L41.19 13.75L41.19 13.75Q41.47 13.30 42.29 13.15L42.29 13.15L42.29 13.15Q43.11 12.99 44.97 12.99L44.97 12.99L45.18 12.99L45.18 11.30L45.18 11.30Q44.66 11.14 43.76 11.14L43.76 11.14L43.76 11.14Q42.64 11.14 41.40 11.48L41.40 11.48L41.22 10.46L41.22 10.46Q41.73 10.28 42.50 10.16L42.50 10.16L42.50 10.16Q43.27 10.04 44.00 10.04L44.00 10.04ZM44.06 16.24L44.06 16.24Q44.72 16.24 44.95 16.07L44.95 16.07L44.95 16.07Q45.18 15.90 45.18 15.43L45.18 15.43L45.18 13.90L43.32 13.90L43.32 13.90Q42.66 13.90 42.42 14.07L42.42 14.07L42.42 14.07Q42.18 14.24 42.18 14.71L42.18 14.71L42.18 16.24L44.06 16.24ZM53.07 7.87L54.47 7.70L54.47 17.18L53.83 17.18L53.52 16.62L53.52 16.62Q53.24 17.05 52.72 17.22L52.72 17.22L52.72 17.22Q52.19 17.39 51.27 17.39L51.27 17.39L51.27 17.39Q50.15 17.39 49.59 17.09L49.59 17.09L49.59 17.09Q49.04 16.80 48.83 16.03L48.83 16.03L48.83 16.03Q48.61 15.26 48.61 13.68L48.61 13.68L48.61 13.68Q48.61 12.19 48.82 11.42L48.82 11.42L48.82 11.42Q49.03 10.65 49.55 10.35L49.55 10.35L49.55 10.35Q50.06 10.04 51.07 10.04L51.07 10.04L51.07 10.04Q51.79 10.04 52.27 10.12L52.27 10.12L52.27 10.12Q52.75 10.19 53.07 10.37L53.07 10.37L53.07 7.87ZM53.07 15.89L53.07 11.19L50.72 11.19L50.72 11.19Q50.34 11.19 50.21 11.26L50.21 11.26L50.21 11.26Q50.08 11.33 50.08 11.54L50.08 11.54L50.08 16.24L52.43 16.24L52.43 16.24Q52.81 16.24 52.94 16.17L52.94 16.17L52.94 16.17Q53.07 16.10 53.07 15.89L53.07 15.89ZM59.54 16.21L59.54 16.21Q60.12 16.21 60.66 16.14L60.66 16.14L60.66 16.14Q61.21 16.06 61.96 15.88L61.96 15.88L62.15 16.90L62.15 16.90Q61.63 17.09 60.87 17.21L60.87 17.21L60.87 17.21Q60.10 17.32 59.29 17.32L59.29 17.32L59.29 17.32Q58.20 17.32 57.62 17.00L57.62 17.00L57.62 17.00Q57.05 16.69 56.81 15.92L56.81 15.92L56.81 15.92Q56.57 15.15 56.57 13.68L56.57 13.68L56.57 13.68Q56.57 12.26 56.85 11.49L56.85 11.49L56.85 11.49Q57.12 10.71 57.75 10.37L57.75 10.37L57.75 10.37Q58.38 10.04 59.53 10.04L59.53 10.04L59.53 10.04Q60.66 10.04 61.26 10.22L61.26 10.22L61.26 10.22Q61.85 10.40 62.09 10.84L62.09 10.84L62.09 10.84Q62.33 11.28 62.33 12.14L62.33 12.14L62.33 12.14Q62.33 13.16 62.03 13.61L62.03 13.61L62.03 13.61Q61.74 14.06 60.88 14.21L60.88 14.21L60.88 14.21Q60.02 14.36 58.04 14.36L58.04 14.36L58.04 16.06L58.04 16.06Q58.60 16.21 59.54 16.21L59.54 16.21ZM59.21 11.19L59.21 11.19Q58.53 11.19 58.29 11.35L58.29 11.35L58.29 11.35Q58.04 11.52 58.04 12.00L58.04 12.00L58.04 13.45L59.89 13.45L59.89 13.45Q60.58 13.45 60.82 13.29L60.82 13.29L60.82 13.29Q61.07 13.12 61.07 12.64L61.07 12.64L61.07 11.19L59.21 11.19ZM72.11 7.87L73.51 7.70L73.51 17.18L72.87 17.18L72.56 16.62L72.56 16.62Q72.28 17.05 71.76 17.22L71.76 17.22L71.76 17.22Q71.23 17.39 70.31 17.39L70.31 17.39L70.31 17.39Q69.19 17.39 68.63 17.09L68.63 17.09L68.63 17.09Q68.08 16.80 67.86 16.03L67.86 16.03L67.86 16.03Q67.65 15.26 67.65 13.68L67.65 13.68L67.65 13.68Q67.65 12.19 67.86 11.42L67.86 11.42L67.86 11.42Q68.07 10.65 68.59 10.35L68.59 10.35L68.59 10.35Q69.10 10.04 70.11 10.04L70.11 10.04L70.11 10.04Q70.83 10.04 71.31 10.12L71.31 10.12L71.31 10.12Q71.79 10.19 72.11 10.37L72.11 10.37L72.11 7.87ZM72.11 15.89L72.11 11.19L69.76 11.19L69.76 11.19Q69.38 11.19 69.25 11.26L69.25 11.26L69.25 11.26Q69.12 11.33 69.12 11.54L69.12 11.54L69.12 16.24L71.47 16.24L71.47 16.24Q71.85 16.24 71.98 16.17L71.98 16.17L71.98 16.17Q72.11 16.10 72.11 15.89L72.11 15.89ZM78.64 10.04L78.64 10.04Q79.60 10.04 80.16 10.23L80.16 10.23L80.16 10.23Q80.72 10.42 80.97 10.84L80.97 10.84L80.97 10.84Q81.21 11.27 81.21 12.00L81.21 12.00L81.21 17.18L80.57 17.18L80.19 16.48L80.19 16.48Q79.69 16.91 79.08 17.12L79.08 17.12L79.08 17.12Q78.47 17.32 77.69 17.32L77.69 17.32L77.69 17.32Q76.52 17.32 76.03 16.84L76.03 16.84L76.03 16.84Q75.54 16.35 75.54 15.22L75.54 15.22L75.54 15.22Q75.54 14.20 75.82 13.75L75.82 13.75L75.82 13.75Q76.10 13.30 76.92 13.15L76.92 13.15L76.92 13.15Q77.74 12.99 79.60 12.99L79.60 12.99L79.81 12.99L79.81 11.30L79.81 11.30Q79.30 11.14 78.40 11.14L78.40 11.14L78.40 11.14Q77.28 11.14 76.03 11.48L76.03 11.48L75.85 10.46L75.85 10.46Q76.37 10.28 77.14 10.16L77.14 10.16L77.14 10.16Q77.91 10.04 78.64 10.04L78.64 10.04ZM78.69 16.24L78.69 16.24Q79.35 16.24 79.58 16.07L79.58 16.07L79.58 16.07Q79.81 15.90 79.81 15.43L79.81 15.43L79.81 13.90L77.95 13.90L77.95 13.90Q77.29 13.90 77.06 14.07L77.06 14.07L77.06 14.07Q76.82 14.24 76.82 14.71L76.82 14.71L76.82 16.24L78.69 16.24ZM83.19 12.05L83.19 12.05Q83.19 10.98 83.82 10.47L83.82 10.47L83.82 10.47Q84.46 9.97 85.83 9.97L85.83 9.97L85.83 9.97Q87.05 9.97 88.16 10.28L88.16 10.28L87.96 11.30L87.96 11.30Q87.61 11.20 87.14 11.14L87.14 11.14L87.14 11.14Q86.66 11.07 86.25 11.07L86.25 11.07L86.25 11.07Q85.41 11.07 84.66 11.20L84.66 11.20L84.66 12.85L84.66 12.85Q86.34 13.09 87.13 13.34L87.13 13.34L87.13 13.34Q87.92 13.58 88.21 13.99L88.21 13.99L88.21 13.99Q88.51 14.41 88.51 15.20L88.51 15.20L88.51 15.20Q88.51 16.00 88.22 16.48L88.22 16.48L88.22 16.48Q87.93 16.95 87.29 17.17L87.29 17.17L87.29 17.17Q86.65 17.39 85.57 17.39L85.57 17.39L85.57 17.39Q84.36 17.39 83.03 16.98L83.03 16.98L83.26 15.86L83.26 15.86Q84.34 16.28 85.55 16.28L85.55 16.28L85.55 16.28Q85.97 16.28 86.30 16.24L86.30 16.24L86.30 16.24Q86.62 16.20 87.04 16.09L87.04 16.09L87.04 14.43L87.04 14.43Q85.23 14.18 84.46 13.94L84.46 13.94L84.46 13.94Q83.69 13.71 83.44 13.31L83.44 13.31L83.44 13.31Q83.19 12.91 83.19 12.05L83.19 12.05ZM92.85 17.18L92.85 17.18ZM98.74 17.18L98.17 15.22L94.82 15.22L94.25 17.18L92.85 17.18L95.44 8.43L97.55 8.43L100.14 17.18L98.74 17.18ZM95.14 14.11L97.85 14.11L96.56 9.72L96.43 9.72L95.14 14.11ZM95.62 7.53L95.31 7.06L97.44 5.52L97.44 5.52Q97.51 5.46 97.55 5.46L97.55 5.46L97.55 5.46Q97.61 5.46 97.66 5.53L97.66 5.53L98.27 6.27L98.27 6.27Q98.36 6.38 98.36 6.44L98.36 6.44L98.36 6.44Q98.36 6.51 98.27 6.59L98.27 6.59L97.89 6.90L97.89 6.90Q97.78 6.99 97.58 7.04L97.58 7.04L95.62 7.53ZM103.95 16.14L103.95 16.14Q105.11 16.27 105.66 16.43L105.66 16.43L105.66 16.43Q106.20 16.59 106.40 16.87L106.40 16.87L106.40 16.87Q106.60 17.15 106.60 17.72L106.60 17.72L106.60 17.72Q106.60 18.38 106.33 18.77L106.33 18.77L106.33 18.77Q106.06 19.15 105.45 19.32L105.45 19.32L105.45 19.32Q104.85 19.49 103.81 19.49L103.81 19.49L103.81 19.49Q103.05 19.49 102.33 19.38L102.33 19.38L102.33 19.38Q101.61 19.26 101.09 19.07L101.09 19.07L101.28 18.00L101.28 18.00Q102.00 18.19 102.51 18.26L102.51 18.26L102.51 18.26Q103.03 18.34 103.56 18.34L103.56 18.34L103.56 18.34Q104.64 18.34 105.35 18.19L105.35 18.19L105.35 17.15L105.35 17.15Q103.92 17.07 103.32 16.93L103.32 16.93L103.32 16.93Q102.72 16.79 102.72 16.55L102.72 16.55L103.10 15.11L103.10 15.11Q102.30 15.04 101.84 14.77L101.84 14.77L101.84 14.77Q101.39 14.50 101.18 13.97L101.18 13.97L101.18 13.97Q100.98 13.44 100.98 12.56L100.98 12.56L100.98 12.56Q100.98 11.56 101.24 11.01L101.24 11.01L101.24 11.01Q101.50 10.46 102.09 10.21L102.09 10.21L102.09 10.21Q102.68 9.97 103.74 9.97L103.74 9.97L103.74 9.97Q104.82 9.97 105.39 10.21L105.39 10.21L106.39 9.45L107.09 10.14L106.27 11.07L106.27 11.07Q106.51 11.61 106.51 12.56L106.51 12.56L106.51 12.56Q106.51 13.51 106.28 14.06L106.28 14.06L106.28 14.06Q106.05 14.60 105.51 14.85L105.51 14.85L105.51 14.85Q104.97 15.11 104.02 15.13L104.02 15.13L103.95 16.14ZM102.37 11.76L102.37 14.21L104.10 14.21L104.10 14.21Q104.68 14.21 104.90 14.02L104.90 14.02L104.90 14.02Q105.13 13.83 105.13 13.34L105.13 13.34L105.13 10.89L103.39 10.89L103.39 10.89Q102.82 10.89 102.59 11.08L102.59 11.08L102.59 11.08Q102.37 11.27 102.37 11.76L102.37 11.76ZM114.24 10.18L114.24 17.18L113.60 17.18L113.22 16.48L113.22 16.48Q112.66 16.91 111.99 17.12L111.99 17.12L111.99 17.12Q111.33 17.32 110.47 17.32L110.47 17.32L110.47 17.32Q109.52 17.32 109.07 16.96L109.07 16.96L109.07 16.96Q108.63 16.60 108.63 15.85L108.63 15.85L108.63 10.18L110.03 10.18L110.03 16.24L111.65 16.24L111.65 16.24Q112.34 16.24 112.59 16.07L112.59 16.07L112.59 16.07Q112.84 15.90 112.84 15.43L112.84 15.43L112.84 10.18L114.24 10.18ZM119.36 10.04L119.36 10.04Q120.33 10.04 120.89 10.23L120.89 10.23L120.89 10.23Q121.45 10.42 121.69 10.84L121.69 10.84L121.69 10.84Q121.94 11.27 121.94 12.00L121.94 12.00L121.94 17.18L121.30 17.18L120.92 16.48L120.92 16.48Q120.41 16.91 119.80 17.12L119.80 17.12L119.80 17.12Q119.20 17.32 118.41 17.32L118.41 17.32L118.41 17.32Q117.25 17.32 116.76 16.84L116.76 16.84L116.76 16.84Q116.27 16.35 116.27 15.22L116.27 15.22L116.27 15.22Q116.27 14.20 116.55 13.75L116.55 13.75L116.55 13.75Q116.83 13.30 117.65 13.15L117.65 13.15L117.65 13.15Q118.47 12.99 120.33 12.99L120.33 12.99L120.54 12.99L120.54 11.30L120.54 11.30Q120.02 11.14 119.13 11.14L119.13 11.14L119.13 11.14Q118.01 11.14 116.76 11.48L116.76 11.48L116.58 10.46L116.58 10.46Q117.10 10.28 117.87 10.16L117.87 10.16L117.87 10.16Q118.64 10.04 119.36 10.04L119.36 10.04ZM119.42 16.24L119.42 16.24Q120.08 16.24 120.31 16.07L120.31 16.07L120.31 16.07Q120.54 15.90 120.54 15.43L120.54 15.43L120.54 13.90L118.68 13.90L118.68 13.90Q118.02 13.90 117.78 14.07L117.78 14.07L117.78 14.07Q117.54 14.24 117.54 14.71L117.54 14.71L117.54 16.24L119.42 16.24ZM123.91 12.05L123.91 12.05Q123.91 10.98 124.55 10.47L124.55 10.47L124.55 10.47Q125.19 9.97 126.56 9.97L126.56 9.97L126.56 9.97Q127.78 9.97 128.88 10.28L128.88 10.28L128.69 11.30L128.69 11.30Q128.34 11.20 127.86 11.14L127.86 11.14L127.86 11.14Q127.39 11.07 126.98 11.07L126.98 11.07L126.98 11.07Q126.14 11.07 125.38 11.20L125.38 11.20L125.38 12.85L125.38 12.85Q127.06 13.09 127.85 13.34L127.85 13.34L127.85 13.34Q128.65 13.58 128.94 13.99L128.94 13.99L128.94 13.99Q129.23 14.41 129.23 15.20L129.23 15.20L129.23 15.20Q129.23 16.00 128.95 16.48L128.95 16.48L128.95 16.48Q128.66 16.95 128.02 17.17L128.02 17.17L128.02 17.17Q127.37 17.39 126.29 17.39L126.29 17.39L126.29 17.39Q125.09 17.39 123.76 16.98L123.76 16.98L123.98 15.86L123.98 15.86Q125.06 16.28 126.28 16.28L126.28 16.28L126.28 16.28Q126.70 16.28 127.02 16.24L127.02 16.24L127.02 16.24Q127.34 16.20 127.76 16.09L127.76 16.09L127.76 14.43L127.76 14.43Q125.96 14.18 125.19 13.94L125.19 13.94L125.19 13.94Q124.42 13.71 124.17 13.31L124.17 13.31L124.17 13.31Q123.91 12.91 123.91 12.05L123.91 12.05Z"></path></g><defs data-v-fde0c5aa=""><!----></defs><g data-v-fde0c5aa="" id="bdd8b42d-f5e2-424b-be42-90e8fdf52e58" stroke="none" fill="#ffffff" transform="matrix(0.34508693601716267,0,0,0.34508693601716267,31.909018274492986,132.74565336369213)"><path d="M51.248 94.834h-.005c-.427 0-.864-.005-1.299-.016-11.838-.285-19.833-4.263-23.763-11.824-5.174-9.952-2.999-25.662 6.462-46.696C39.542 20.96 48 8.212 48.085 8.085l1.945-2.919 1.903 2.947c.085.131 8.572 13.331 15.475 29.034 9.471 21.544 11.598 37.381 6.321 47.069-3.837 7.045-11.401 10.618-22.481 10.618zm-1.277-81.143c-2.864 4.613-8.392 13.952-13.155 24.549-8.71 19.382-10.975 34.123-6.55 42.632 3.099 5.958 9.757 9.102 19.789 9.344.398.009.798.014 1.189.015h.005c9.396 0 15.426-2.687 18.438-8.215 4.492-8.246 2.255-23.102-6.469-42.964-4.799-10.925-10.385-20.618-13.247-25.361z"></path><path d="M43.706 85.738c-.073 0-.146-.003-.22-.011-3.251-.309-6.329-2.477-8.444-5.95-2.589-4.251-3.166-9.461-1.504-13.597a2.302 2.302 0 0 1 4.271 1.715c-1.114 2.773-.657 6.496 1.164 9.487 1.332 2.188 3.182 3.594 4.948 3.762a2.302 2.302 0 0 1-.215 4.594z"></path></g><!----></svg>