<svg data-v-423bf9ae="" xmlns="http://www.w3.org/2000/svg" viewBox="0 0 35.53527603760209 60" class="icon"><!----><!----><!----><!----><g data-v-423bf9ae="" id="04bc7d83-3606-46ad-a848-58cb9fce7f37" transform="matrix(0.6691350369149434,0,0,0.6691350369149434,-15.688681305047254,-3.4567520035158736)" stroke="none" fill="black"><path d="M51.248 94.834h-.005c-.427 0-.864-.005-1.299-.016-11.838-.285-19.833-4.263-23.763-11.824-5.174-9.952-2.999-25.662 6.462-46.696C39.542 20.96 48 8.212 48.085 8.085l1.945-2.919 1.903 2.947c.085.131 8.572 13.331 15.475 29.034 9.471 21.544 11.598 37.381 6.321 47.069-3.837 7.045-11.401 10.618-22.481 10.618zm-1.277-81.143c-2.864 4.613-8.392 13.952-13.155 24.549-8.71 19.382-10.975 34.123-6.55 42.632 3.099 5.958 9.757 9.102 19.789 9.344.398.009.798.014 1.189.015h.005c9.396 0 15.426-2.687 18.438-8.215 4.492-8.246 2.255-23.102-6.469-42.964-4.799-10.925-10.385-20.618-13.247-25.361z"></path><path d="M43.706 85.738c-.073 0-.146-.003-.22-.011-3.251-.309-6.329-2.477-8.444-5.95-2.589-4.251-3.166-9.461-1.504-13.597a2.302 2.302 0 0 1 4.271 1.715c-1.114 2.773-.657 6.496 1.164 9.487 1.332 2.188 3.182 3.594 4.948 3.762a2.302 2.302 0 0 1-.215 4.594z"></path></g><!----></svg>